<svg width="164" height="164" viewBox="0 0 164 164" fill="none" xmlns="http://www.w3.org/2000/svg">
<rect width="164" height="164" fill="#EBE8FF"/>
<path d="M122.332 126C137.231 118.98 146 110.38 146 101.088C146 89.1207 131.454 79.0403 108 72" stroke="#3F5196" stroke-width="5.48439" stroke-linecap="round" stroke-linejoin="round"/>
<path d="M19 37.6758L89.3984 56.1175L85.7478 93.0548L19 37.6758Z" fill="#50555C"/>
<path d="M19 37.6758L89.3984 56.1175L85.7478 93.0548L19 37.6758Z" fill="#50555C"/>
<path d="M20.3501 37.375L88.1231 57.5033L85.7478 93.0537L20.3501 37.375Z" fill="#EBE8FF"/>
<path d="M20.3501 37.375L88.1231 57.5033L85.7478 93.0537L20.3501 37.375Z" fill="#7D8CC9"/>
<path d="M21.1246 37L87.8732 57.3286L70.92 71.928L21.1246 37Z" fill="#958DCC"/>
<path d="M21.1246 37L87.8732 57.3286L70.92 71.928L21.1246 37Z" fill="#958DCC"/>
<path d="M21.1246 37L89.1484 55.7789L107.877 42.1795L21.1246 37Z" fill="#958DCC"/>
<path d="M21.1246 37L89.1484 55.7789L107.877 42.1795L21.1246 37Z" fill="#958DCC"/>
</svg>
