<svg width="203" height="401" viewBox="0 0 203 401" fill="none" xmlns="http://www.w3.org/2000/svg">
<path d="M162.728 197C186.19 185.957 200 172.428 200 157.812C200 138.987 177.092 123.13 140.157 112.055" stroke="#3C2F80" stroke-width="5.48439" stroke-linecap="round" stroke-linejoin="round"/>
<path d="M0 58.0645L110.864 87.0742L105.115 145.179L0 58.0645Z" fill="#0857A0"/>
<path d="M2.12598 57.5898L108.855 89.2527L105.115 145.175L2.12598 57.5898Z" fill="#26B6C6"/>
<path d="M3.3457 57L108.462 88.978L81.7637 111.944L3.3457 57Z" fill="#6ACFC9"/>
<path d="M3.3457 57L110.47 86.5402L139.964 65.1476L3.3457 57Z" fill="#6ACFC9"/>
<path d="M18.3606 33.6763C16.7944 33.1063 15.7497 31.8357 15.3394 30.0017C15.0416 28.6712 15.1841 27.5116 15.1904 27.4629L15.1949 27.4279L20.8044 6.64289L20.8171 6.61215C20.8442 6.5468 21.4979 4.99788 22.9722 3.7298C24.3563 2.53942 26.7361 1.38606 30.2139 2.65186C33.4227 3.81978 34.4974 6.12766 34.8339 7.85808C35.1915 9.69746 34.8056 11.2503 34.789 11.3155L34.7782 11.3578L25.8502 31.3856L25.8288 31.4187C25.802 31.4602 25.1586 32.4433 23.9233 33.2119C22.7718 33.9284 20.8721 34.5904 18.3606 33.6763Z" fill="#958DCC"/>
<path d="M15.7104 42.6855C15.873 42.5277 15.873 42.2718 15.7104 42.114" stroke="#958DCC" stroke-width="7" stroke-linecap="round" stroke-linejoin="round"/>
<path d="M15.1221 42.6863C15.2846 42.8441 15.5482 42.8441 15.7108 42.6863" stroke="#958DCC" stroke-width="7" stroke-linecap="round" stroke-linejoin="round"/>
<path d="M15.1219 42.114C14.9594 42.2718 14.9594 42.5277 15.1219 42.6855" stroke="#958DCC" stroke-width="7" stroke-linecap="round" stroke-linejoin="round"/>
<path d="M15.7108 42.1152C15.5482 41.9574 15.2846 41.9574 15.1221 42.1152" stroke="#958DCC" stroke-width="7" stroke-linecap="round" stroke-linejoin="round"/>
<path d="M28 308.033C67.7009 269.487 132.299 269.486 172 308.033" stroke="#958DCC" stroke-width="10" stroke-linecap="round" stroke-linejoin="round"/>
<path d="M50.1533 329.546C77.6388 302.86 122.361 302.86 149.846 329.545" stroke="#958DCC" stroke-width="10" stroke-linecap="round" stroke-linejoin="round"/>
<path d="M72.3076 351.055C87.5773 336.229 112.423 336.229 127.693 351.054" stroke="#958DCC" stroke-width="10" stroke-linecap="round" stroke-linejoin="round"/>
<path d="M105.539 383.014C108.597 385.984 108.597 390.798 105.539 393.768" stroke="#958DCC" stroke-width="10" stroke-linecap="round" stroke-linejoin="round"/>
<path d="M94.4619 383.016C97.5208 380.047 102.48 380.047 105.539 383.016" stroke="#958DCC" stroke-width="10" stroke-linecap="round" stroke-linejoin="round"/>
<path d="M94.4616 393.768C91.4028 390.798 91.4028 385.984 94.4616 383.014" stroke="#958DCC" stroke-width="10" stroke-linecap="round" stroke-linejoin="round"/>
<path d="M105.539 393.771C102.48 396.741 97.5208 396.741 94.4619 393.771" stroke="#958DCC" stroke-width="10" stroke-linecap="round" stroke-linejoin="round"/>
<path d="M98.7895 368.526C93.0336 368.522 88.1646 365.629 84.7089 360.159C82.2015 356.191 81.3246 352.258 81.2887 352.093L81.2627 351.974L75.4866 277.889L75.4926 277.774C75.5052 277.53 75.8418 271.731 79.1735 265.877C82.3014 260.382 88.7127 253.832 101.494 253.842C113.287 253.851 119.453 260.076 122.549 265.297C125.839 270.846 126.379 276.342 126.4 276.573L126.414 276.723L120.515 352.261L120.483 352.394C120.444 352.561 119.487 356.51 116.355 360.462C113.437 364.145 108.02 368.533 98.7895 368.526Z" fill="#958DCC"/>
<path d="M101.493 255.664C122.588 255.68 124.531 276.736 124.531 276.736L118.654 351.988C118.654 351.988 115.179 366.718 98.7904 366.705C86.3918 366.696 83.1232 351.716 83.1232 351.716L77.366 277.867C77.366 277.867 78.522 255.647 101.493 255.664ZM101.495 252.021C95.5246 252.016 90.3129 253.375 86.0051 256.06C82.5217 258.231 79.6707 261.238 77.5313 264.997C73.9922 271.215 73.6324 277.422 73.6189 277.683L73.6071 277.912L73.6249 278.142L79.3821 351.991L79.4009 352.233L79.4526 352.471C79.4913 352.649 80.4347 356.879 83.1093 361.112C84.7512 363.711 86.7154 365.804 88.9473 367.335C91.8593 369.332 95.1701 370.345 98.7875 370.348C108.782 370.356 114.666 365.58 117.842 361.573C121.164 357.382 122.204 353.258 122.312 352.801L122.374 352.536L122.396 352.264L128.273 277.011L128.296 276.711L128.268 276.411C128.246 276.163 127.669 270.281 124.174 264.388C122.061 260.824 119.32 257.969 116.029 255.904C111.931 253.331 107.041 252.025 101.495 252.021Z" fill="white"/>
<path d="M92.7868 283.901C90.9544 283.9 89.4676 285.341 89.4662 287.12C89.4647 288.899 90.9492 290.343 92.7817 290.344C94.6141 290.345 96.1009 288.904 96.1023 287.125C96.1037 285.346 94.6193 283.902 92.7868 283.901Z" fill="#554B99"/>
<path d="M109.406 283.915C107.574 283.913 106.087 285.354 106.085 287.134C106.084 288.913 107.568 290.356 109.401 290.358C111.233 290.359 112.72 288.918 112.721 287.139C112.723 285.359 111.238 283.916 109.406 283.915Z" fill="#554B99"/>
<path d="M95.1688 299.226C95.1688 299.226 96.9304 296.039 101.423 296.038C104.842 296.037 107.11 298.779 107.11 298.779" stroke="#554B99" stroke-width="2" stroke-linecap="round" stroke-linejoin="round"/>
</svg>
