<svg width="443" height="206" viewBox="0 0 443 206" fill="none" xmlns="http://www.w3.org/2000/svg">
<rect width="443" height="206" fill="white"/>
<path d="M151 83.033C190.701 44.4867 255.299 44.4862 295 83.0325" stroke="#958DCC" stroke-width="10" stroke-linecap="round" stroke-linejoin="round"/>
<path d="M173.153 104.546C200.639 77.8598 245.361 77.8598 272.846 104.545" stroke="#958DCC" stroke-width="10" stroke-linecap="round" stroke-linejoin="round"/>
<path d="M195.308 126.055C210.577 111.229 235.423 111.229 250.693 126.054" stroke="#958DCC" stroke-width="10" stroke-linecap="round" stroke-linejoin="round"/>
<path d="M228.539 158.014C231.597 160.984 231.597 165.798 228.539 168.768" stroke="#958DCC" stroke-width="10" stroke-linecap="round" stroke-linejoin="round"/>
<path d="M217.462 158.016C220.521 155.047 225.48 155.047 228.539 158.016" stroke="#958DCC" stroke-width="10" stroke-linecap="round" stroke-linejoin="round"/>
<path d="M217.462 168.768C214.403 165.798 214.403 160.984 217.462 158.014" stroke="#958DCC" stroke-width="10" stroke-linecap="round" stroke-linejoin="round"/>
<path d="M228.539 168.771C225.48 171.741 220.521 171.741 217.462 168.771" stroke="#958DCC" stroke-width="10" stroke-linecap="round" stroke-linejoin="round"/>
<path d="M221.79 143.526C216.034 143.522 211.165 140.629 207.709 135.159C205.202 131.191 204.325 127.258 204.289 127.093L204.263 126.974L198.487 52.8891L198.493 52.7743C198.505 52.5302 198.842 46.7315 202.174 40.8772C205.301 35.3815 211.713 28.8322 224.494 28.8419C236.287 28.8508 242.453 35.0758 245.549 40.2965C248.839 45.846 249.379 51.3417 249.4 51.573L249.414 51.723L243.515 127.261L243.483 127.394C243.444 127.561 242.487 131.51 239.355 135.462C236.437 139.145 231.02 143.533 221.79 143.526Z" fill="#958DCC"/>
<path d="M224.493 30.6638C245.588 30.6796 247.531 51.7357 247.531 51.7357L241.654 126.988C241.654 126.988 238.179 141.718 221.79 141.705C209.392 141.696 206.123 126.716 206.123 126.716L200.366 52.8667C200.366 52.8667 201.522 30.6465 224.493 30.6638ZM224.495 27.0209C218.525 27.0164 213.313 28.3754 209.005 31.0602C205.522 33.2311 202.671 36.2379 200.531 39.997C196.992 46.2153 196.632 52.4218 196.619 52.683L196.607 52.9125L196.625 53.1417L202.382 126.991L202.401 127.233L202.453 127.471C202.491 127.649 203.435 131.879 206.109 136.112C207.751 138.711 209.715 140.804 211.947 142.335C214.859 144.332 218.17 145.345 221.787 145.348C231.782 145.356 237.666 140.58 240.842 136.573C244.164 132.382 245.204 128.258 245.312 127.801L245.374 127.536L245.396 127.264L251.273 52.0111L251.296 51.7107L251.268 51.4107C251.246 51.1631 250.669 45.2809 247.174 39.388C245.061 35.8241 242.32 32.9695 239.029 30.9036C234.931 28.3315 230.041 27.0251 224.495 27.0209Z" fill="white"/>
<path d="M215.787 58.9009C213.954 58.8996 212.468 60.3407 212.466 62.12C212.465 63.8991 213.949 65.3427 215.782 65.3441C217.614 65.3454 219.101 63.9041 219.102 62.125C219.104 60.3457 217.619 58.9023 215.787 58.9009Z" fill="#554B99"/>
<path d="M232.406 58.9146C230.574 58.9132 229.087 60.3544 229.085 62.1337C229.084 63.9128 230.568 65.3564 232.401 65.3577C234.233 65.3591 235.72 63.9178 235.721 62.1387C235.723 60.3594 234.238 58.916 232.406 58.9146Z" fill="#554B99"/>
<path d="M218.169 74.2263C218.169 74.2263 219.93 71.0394 224.423 71.0379C227.842 71.0367 230.11 73.7791 230.11 73.7791" stroke="#554B99" stroke-width="2" stroke-linecap="round" stroke-linejoin="round"/>
</svg>
