<svg width="120" height="120" viewBox="0 0 120 120" fill="none" xmlns="http://www.w3.org/2000/svg">
<g clip-path="url(#clip0_1479_1685)">
<mask id="mask0_1479_1685" style="mask-type:luminance" maskUnits="userSpaceOnUse" x="0" y="0" width="120" height="120">
<path d="M120 0H0V120H120V0Z" fill="white"/>
</mask>
<g mask="url(#mask0_1479_1685)">
<path d="M27.8569 59.1582V94.6402L59.9989 107.5L92.1439 94.6402V59.1582H27.8569Z" fill="#837BBB"/>
<path d="M60 107.5L92.144 94.6412V59.1582H60V107.5Z" fill="#958DCC"/>
<path d="M72.856 32.498L60 39.142L47.143 32.498L15 49.106L27.856 55.748L15 62.392L47.143 78.996L60 72.356L72.856 78.996L105 62.392L92.143 55.748L105 49.106L72.856 32.498Z" fill="#EBE8FF"/>
<path d="M59.9989 39.1426L27.8569 55.7476L59.9989 72.3566L92.1439 55.7476L59.9989 39.1426Z" fill="#837BBB"/>
<path d="M59.737 61.6402C55.062 57.5122 46.164 47.6932 60.074 42.4202C72.89 37.5622 76.915 38.3412 81.46 34.6072C86.561 30.4142 85.289 20.0372 75.26 14.9512" stroke="#462978" stroke-linecap="round" stroke-linejoin="round" stroke-dasharray="2.03 2.03"/>
</g>
</g>
<path d="M58 7.13281L71.858 10.7631L71.1394 18.0342L58 7.13281Z" fill="#50555C"/>
<path d="M58 7.13281L71.858 10.7631L71.1394 18.0342L58 7.13281Z" fill="#50555C"/>
<path d="M58.2656 7.07227L71.6068 11.0345L71.1392 18.0327L58.2656 7.07227Z" fill="#EBE8FF"/>
<path d="M58.2656 7.07227L71.6068 11.0345L71.1392 18.0327L58.2656 7.07227Z" fill="#7D8CC9"/>
<path d="M58.4182 7L71.5577 11.0017L68.2205 13.8756L58.4182 7Z" fill="#958DCC"/>
<path d="M58.4182 7L71.5577 11.0017L68.2205 13.8756L58.4182 7Z" fill="#958DCC"/>
<path d="M58.4182 7L71.8087 10.6966L75.4954 8.01958L58.4182 7Z" fill="#958DCC"/>
<path d="M58.4182 7L71.8087 10.6966L75.4954 8.01958L58.4182 7Z" fill="#958DCC"/>
<defs>
<clipPath id="clip0_1479_1685">
<rect width="120" height="120" fill="white"/>
</clipPath>
</defs>
</svg>
