<svg width="136" height="170" viewBox="0 0 136 170" fill="none" xmlns="http://www.w3.org/2000/svg">
<path d="M108.214 93.1006C123.817 85.7572 133 76.7601 133 67.0403C133 54.5213 117.766 43.9762 93.2041 36.6113" stroke="#C9BEFF" stroke-width="5.48439" stroke-linecap="round" stroke-linejoin="round"/>
<path d="M0 0.714844L73.7256 20.0067L69.9025 58.6467L0 0.714844Z" fill="#0857A0"/>
<path d="M1.41113 0.390625L72.3873 21.4468L69.8997 58.636L1.41113 0.390625Z" fill="#D9FBFF"/>
<path d="M1.41113 0.390625L72.3873 21.4468L69.8997 58.636L1.41113 0.390625Z" fill="#D9FBFF"/>
<path d="M2.22754 0L72.1308 21.2657L54.3763 36.5381L2.22754 0Z" fill="#9DE6E2"/>
<path d="M2.22754 0L73.4663 19.6445L93.0799 5.41822L2.22754 0Z" fill="#9DE6E2"/>
<path d="M43.2196 142.011C43.3529 141.345 43.6062 141.011 43.9796 141.011C44.2462 141.011 44.4062 141.571 44.4596 142.691C44.5129 144.051 44.4996 148.398 44.4196 155.731C44.3929 158.185 44.3396 159.611 44.2596 160.011C44.1796 160.411 43.9529 160.585 43.5796 160.531C43.2329 160.478 43.0196 160.211 42.9396 159.731C42.8596 159.225 42.8196 157.571 42.8196 154.771V149.131H41.3796C40.4196 149.131 39.8862 149.211 39.7796 149.371C39.7262 149.558 39.3529 149.651 38.6596 149.651C38.2862 149.651 38.0329 149.598 37.8996 149.491C37.7662 149.385 37.6996 149.225 37.6996 149.011C37.6996 148.691 37.8862 148.438 38.2596 148.251C38.6329 148.065 39.1662 147.971 39.8596 147.971C40.2862 147.971 40.9262 147.851 41.7796 147.611L43.0196 147.291V145.171C43.0196 143.838 43.0862 142.785 43.2196 142.011ZM30.6196 143.091C31.4196 142.611 31.9929 142.385 32.3396 142.411C32.6862 142.411 33.2596 142.665 34.0596 143.171C35.0462 143.785 35.7262 144.478 36.0996 145.251C36.4996 145.998 36.6996 147.025 36.6996 148.331C36.6996 150.358 36.3796 151.998 35.7396 153.251C35.0996 154.505 34.1929 155.305 33.0196 155.651C31.4196 156.051 30.0329 155.758 28.8596 154.771C27.6862 153.758 27.0862 152.371 27.0596 150.611C27.0596 147.065 28.2462 144.558 30.6196 143.091ZM34.1396 145.131C33.4196 144.358 32.8462 143.971 32.4196 143.971C32.0196 143.971 31.3662 144.371 30.4596 145.171C29.0729 146.345 28.3796 148.265 28.3796 150.931C28.4062 151.571 28.6062 152.171 28.9796 152.731C29.3529 153.265 29.8062 153.678 30.3396 153.971C30.8729 154.238 31.4462 154.345 32.0596 154.291C32.6729 154.238 33.2062 154.011 33.6596 153.611C34.7796 152.518 35.3396 150.798 35.3396 148.451C35.3396 147.411 35.2862 146.731 35.1796 146.411C35.0729 146.091 34.7262 145.665 34.1396 145.131ZM63.1527 140.331C63.606 140.038 63.8993 140.131 64.0327 140.611C64.1927 141.225 64.2993 143.558 64.3527 147.611C64.3793 152.091 64.4727 155.451 64.6327 157.691C64.7127 159.078 64.726 159.918 64.6727 160.211C64.646 160.478 64.4727 160.611 64.1527 160.611C63.6993 160.611 63.4193 160.491 63.3127 160.251C62.9927 159.798 62.806 155.625 62.7527 147.731C62.7527 146.318 62.7393 145.158 62.7127 144.251C62.7127 143.318 62.726 142.571 62.7527 142.011C62.806 141.451 62.846 141.051 62.8727 140.811C62.926 140.545 63.0193 140.385 63.1527 140.331ZM54.6327 142.371C55.6193 142.051 56.3927 141.958 56.9527 142.091C57.5393 142.225 57.8327 142.545 57.8327 143.051C57.8327 143.425 57.5927 143.731 57.1127 143.971C56.6327 144.185 56.246 144.171 55.9527 143.931C55.7127 143.745 54.766 143.758 53.1127 143.971C51.7793 144.185 50.8727 144.345 50.3927 144.451C49.9127 144.558 49.5793 144.678 49.3927 144.811C49.2327 144.945 49.1127 145.185 49.0327 145.531C48.9793 145.691 48.966 146.118 48.9927 146.811C49.0193 147.478 49.0593 148.225 49.1127 149.051C49.1927 149.851 49.2727 150.678 49.3527 151.531C49.4593 152.358 49.5793 153.011 49.7127 153.491C49.8193 153.971 50.126 154.225 50.6327 154.251C51.1393 154.278 52.3127 154.065 54.1527 153.611C57.486 152.811 59.1527 152.931 59.1527 153.971C59.1527 154.265 59.0727 154.451 58.9127 154.531C58.7527 154.585 58.4193 154.598 57.9127 154.571C57.486 154.571 56.8593 154.638 56.0327 154.771C55.206 154.905 54.3527 155.078 53.4727 155.291C52.6193 155.478 51.926 155.691 51.3927 155.931C50.246 156.358 49.446 156.305 48.9927 155.771C48.5393 155.238 48.2193 153.971 48.0327 151.971C47.846 149.491 47.686 147.851 47.5527 147.051C47.4193 146.251 47.206 145.585 46.9127 145.051C46.646 144.518 46.5127 144.185 46.5127 144.051C46.5127 143.891 46.646 143.718 46.9127 143.531C47.366 143.238 48.5793 143.025 50.5527 142.891C52.686 142.731 54.046 142.558 54.6327 142.371ZM80.348 137.531C80.5347 137.078 80.7747 136.811 81.068 136.731C81.388 136.625 81.6013 136.745 81.708 137.091C81.8147 137.438 81.7613 138.331 81.548 139.771C81.2813 141.211 81.2147 142.038 81.348 142.251C81.5347 142.411 82.5747 142.518 84.468 142.571C85.8013 142.651 86.6013 142.745 86.868 142.851C87.1347 142.931 87.2413 143.131 87.188 143.451C87.1347 143.771 86.9747 143.958 86.708 144.011C86.4413 144.065 85.668 144.065 84.388 144.011C83.2947 143.985 82.5613 143.998 82.188 144.051C81.8147 144.078 81.6147 144.185 81.588 144.371C81.588 144.478 81.5747 145.505 81.548 147.451C81.468 148.545 81.388 149.265 81.308 149.611C81.2547 149.958 81.1347 150.171 80.948 150.251C80.8147 150.278 80.708 150.251 80.628 150.171C80.5747 150.091 80.5213 149.945 80.468 149.731C80.4147 149.491 80.3613 149.198 80.308 148.851C80.2813 148.478 80.228 147.958 80.148 147.291C79.988 144.945 79.9213 142.851 79.948 141.011C80.0013 139.171 80.1347 138.011 80.348 137.531ZM70.228 138.491C71.988 138.251 73.2147 138.105 73.908 138.051C74.388 138.051 74.7347 138.318 74.948 138.851C75.1613 139.358 75.1613 139.998 74.948 140.771C74.7347 141.465 74.628 143.078 74.628 145.611C74.628 147.131 74.588 148.145 74.508 148.651C74.4547 149.158 74.3213 149.465 74.108 149.571C73.548 149.758 73.2147 149.545 73.108 148.931C73.0013 148.265 73.028 146.731 73.188 144.331L73.508 139.651L71.508 139.851C69.908 140.038 68.8147 140.198 68.228 140.331C67.748 140.438 67.4013 140.478 67.188 140.451C66.9747 140.425 66.8413 140.318 66.788 140.131C66.6013 139.705 66.7347 139.385 67.188 139.171C67.668 138.958 68.6813 138.731 70.228 138.491ZM73.868 153.451C75.068 153.185 75.988 152.998 76.628 152.891C77.2947 152.785 77.8813 152.731 78.388 152.731C78.8947 152.731 79.268 152.851 79.508 153.091C79.748 153.305 79.9347 153.598 80.068 153.971C80.228 154.318 80.3613 154.825 80.468 155.491C80.788 157.411 79.6413 158.731 77.028 159.451C75.748 159.825 74.8547 160.185 74.348 160.531C73.868 160.878 73.628 161.291 73.628 161.771C73.628 162.118 73.6947 162.345 73.828 162.451C73.9613 162.558 74.2547 162.611 74.708 162.611C75.348 162.611 76.7613 162.438 78.948 162.091C80.948 161.745 82.1347 161.625 82.508 161.731C82.8013 161.865 82.948 162.185 82.948 162.691C82.948 162.958 82.908 163.131 82.828 163.211C82.748 163.318 82.6013 163.385 82.388 163.411C82.2013 163.465 81.8547 163.491 81.348 163.491C80.3347 163.438 78.668 163.585 76.348 163.931C74.6947 164.145 73.6813 164.238 73.308 164.211C72.9613 164.211 72.668 164.065 72.428 163.771C72.108 163.371 71.948 162.798 71.948 162.051C71.948 160.425 73.1213 159.318 75.468 158.731C76.3747 158.518 77.0813 158.265 77.588 157.971C78.1213 157.651 78.4813 157.305 78.668 156.931C78.8813 156.531 78.9213 156.051 78.788 155.491C78.708 154.931 78.6013 154.598 78.468 154.491C78.3347 154.358 77.9613 154.291 77.348 154.291C76.468 154.291 75.4013 154.465 74.148 154.811C72.4947 155.265 71.4947 155.505 71.148 155.531C70.828 155.531 70.6147 155.385 70.508 155.091C70.4013 154.718 70.3747 154.491 70.428 154.411C70.5347 154.278 71.6813 153.958 73.868 153.451ZM92.8089 141.331C93.9023 141.118 94.9023 141.065 95.8089 141.171C96.7423 141.251 97.3556 141.478 97.6489 141.851C97.9423 142.251 98.1023 143.158 98.1289 144.571C98.1289 145.505 98.0756 146.145 97.9689 146.491C97.8889 146.838 97.6489 147.211 97.2489 147.611C96.5823 148.225 95.4489 148.771 93.8489 149.251L91.4089 150.011L91.5689 152.611C91.6223 154.345 91.7289 155.305 91.8889 155.491C92.0223 155.651 93.0889 155.585 95.0889 155.291C97.0356 154.998 98.2623 154.985 98.7689 155.251C99.4889 155.651 99.5956 155.985 99.0889 156.251C98.8223 156.411 98.4356 156.491 97.9289 156.491C97.2356 156.491 95.9423 156.691 94.0489 157.091C93.3556 157.225 92.8356 157.331 92.4889 157.411C92.1689 157.465 91.8356 157.465 91.4889 157.411C91.1423 157.331 90.9023 157.225 90.7689 157.091C90.6623 156.931 90.5423 156.625 90.4089 156.171C90.2756 155.691 90.1823 155.198 90.1289 154.691C90.1023 154.185 90.0623 153.438 90.0089 152.451C89.9556 151.785 89.9156 151.331 89.8889 151.091C89.8889 150.825 89.9156 150.531 89.9689 150.211C90.0489 149.865 90.1289 149.638 90.2089 149.531C90.2889 149.425 90.4623 149.278 90.7289 149.091C91.0223 148.905 91.2889 148.771 91.5289 148.691C91.7689 148.611 92.1956 148.478 92.8089 148.291C94.5956 147.678 95.7289 147.091 96.2089 146.531C96.6889 145.945 96.8223 145.025 96.6089 143.771L96.4089 142.571L93.8489 142.811C92.0356 142.945 90.8489 143.065 90.2889 143.171C89.8089 143.251 89.5023 143.278 89.3689 143.251C89.2356 143.198 89.1689 143.025 89.1689 142.731C89.1689 142.465 89.2489 142.265 89.4089 142.131C89.5689 141.998 89.8623 141.891 90.2889 141.811C90.6356 141.758 91.4756 141.598 92.8089 141.331ZM108.369 141.851C108.689 141.505 108.956 141.345 109.169 141.371C109.329 141.451 109.422 144.505 109.449 150.531C109.502 156.558 109.462 159.651 109.329 159.811C109.302 159.838 109.209 159.851 109.049 159.851C108.916 159.851 108.782 159.825 108.649 159.771C108.409 159.665 108.249 159.425 108.169 159.051C108.116 158.678 108.076 157.931 108.049 156.811C108.049 155.131 108.009 154.131 107.929 153.811C107.902 153.678 107.862 152.971 107.809 151.691L107.729 149.971H106.489C105.662 149.971 104.916 150.091 104.249 150.331L103.369 150.651L103.529 153.371C103.689 155.238 103.796 156.331 103.849 156.651C103.876 156.731 103.862 156.811 103.809 156.891C103.782 156.971 103.716 157.038 103.609 157.091C103.529 157.118 103.422 157.131 103.289 157.131C102.382 157.131 101.862 154.025 101.729 147.811C101.676 145.278 101.676 143.758 101.729 143.251C101.782 142.745 101.969 142.491 102.289 142.491C102.582 142.491 102.756 142.638 102.809 142.931C102.862 143.225 102.862 144.091 102.809 145.531C102.756 147.558 102.862 148.638 103.129 148.771C103.369 148.958 104.196 148.918 105.609 148.651L107.689 148.251L107.849 145.331C107.929 143.385 108.102 142.225 108.369 141.851ZM112.514 140.851H113.834C115.354 140.851 116.434 141.238 117.074 142.011C117.714 142.838 118.074 143.358 118.154 143.571C118.26 143.785 118.314 144.171 118.314 144.731C118.314 145.531 118.1 146.278 117.674 146.971C117.274 147.665 116.487 148.571 115.314 149.691C114.007 150.891 113.274 151.758 113.114 152.291C112.954 152.798 113.127 153.718 113.634 155.051C114.14 156.438 114.194 157.345 113.794 157.771C113.42 158.198 113.034 158.238 112.634 157.891C112.234 157.518 112.034 156.958 112.034 156.211C112.034 155.731 111.94 155.251 111.754 154.771C111.594 154.291 111.514 153.558 111.514 152.571V151.091L112.434 150.251C112.94 149.745 113.58 149.185 114.354 148.571C114.914 148.145 115.434 147.598 115.914 146.931C116.394 146.238 116.674 145.665 116.754 145.211C116.887 144.598 116.5 143.878 115.594 143.051C114.474 142.011 113.407 141.905 112.394 142.731C112.1 142.971 111.887 143.105 111.754 143.131C111.647 143.158 111.5 143.078 111.314 142.891C111.127 142.705 111.047 142.558 111.074 142.451C111.127 142.318 111.354 142.038 111.754 141.611L112.514 140.851ZM112.274 162.971C112.754 162.651 113.087 162.638 113.274 162.931C113.38 163.091 113.42 163.385 113.394 163.811C113.367 164.265 113.3 164.558 113.194 164.691C113.06 164.825 112.834 164.891 112.514 164.891C112.22 164.891 112.007 164.825 111.874 164.691C111.74 164.478 111.714 164.185 111.794 163.811C111.874 163.438 112.034 163.158 112.274 162.971Z" fill="#554B99"/>
</svg>
